<svg width="30" height="36" viewBox="0 0 30 36" xmlns="http://www.w3.org/2000/svg">
<path d="M1.5 11.0455C1.5 10.7601 1.77067 10.4091 2.25758 10.4091H6.5303V14.7273C6.5303 16.0234 7.63671 16.9545 8.84848 16.9545C10.0603 16.9545 11.1667 16.0234 11.1667 14.7273V10.4091H18.8333V14.7273C18.8333 16.0234 19.9397 16.9545 21.1515 16.9545C22.3633 16.9545 23.4697 16.0234 23.4697 14.7273V10.4091H27.7424C28.2294 10.4091 28.5 10.7601 28.5 11.0455V31.5C28.5 33.3669 26.8523 35 24.6667 35H5.33333C3.14773 35 1.5 33.3669 1.5 31.5V11.0455ZM9.16667 8.40909H8.5303V6.95455C8.5303 3.73204 11.3584 1 15 1C18.6416 1 21.4697 3.73204 21.4697 6.95455V8.40909H20.8333V6.95455C20.8333 3.85088 18.1532 1.45455 15 1.45455C11.8468 1.45455 9.16667 3.85088 9.16667 6.95455V8.40909Z" stroke="#2E2E2E" stroke-width="2"/>
</svg>
