<svg width="31" height="28" viewBox="0 0 31 28" xmlns="http://www.w3.org/2000/svg">
<path d="M27.7399 3.5C26.1405 1.91706 24.0279 0.957907 21.7835 0.795623C19.539 0.63334 17.3104 1.27861 15.4999 2.615C13.5914 1.19546 11.2159 0.551767 8.8518 0.813557C6.4877 1.07535 4.31059 2.22317 2.75888 4.02588C1.20718 5.82859 0.396158 8.15228 0.489127 10.529C0.582095 12.9058 1.57215 15.159 3.25992 16.835L12.2599 25.91C13.1037 26.7527 14.2474 27.226 15.4399 27.226C16.6324 27.226 17.7762 26.7527 18.6199 25.91L27.6199 16.835C28.5063 15.969 29.2128 14.9363 29.6988 13.7964C30.1849 12.6564 30.4408 11.4316 30.4519 10.1924C30.4631 8.95326 30.2292 7.72409 29.7638 6.57557C29.2984 5.42705 28.6106 4.38184 27.7399 3.5ZM25.6249 14.69L16.6249 23.69C16.4855 23.8306 16.3196 23.9422 16.1368 24.0183C15.954 24.0945 15.7579 24.1337 15.5599 24.1337C15.3619 24.1337 15.1658 24.0945 14.9831 24.0183C14.8003 23.9422 14.6344 23.8306 14.4949 23.69L5.49492 14.69C4.31856 13.4875 3.65984 11.8722 3.65984 10.19C3.65984 8.5078 4.31856 6.89248 5.49492 5.69C6.69366 4.50648 8.31038 3.84285 9.99492 3.84285C11.6795 3.84285 13.2962 4.50648 14.4949 5.69C14.6344 5.83059 14.8003 5.94218 14.9831 6.01834C15.1658 6.09449 15.3619 6.1337 15.5599 6.1337C15.7579 6.1337 15.954 6.09449 16.1368 6.01834C16.3196 5.94218 16.4855 5.83059 16.6249 5.69C17.8237 4.50648 19.4404 3.84285 21.1249 3.84285C22.8095 3.84285 24.4262 4.50648 25.6249 5.69C26.8103 6.89382 27.4747 8.51553 27.4747 10.205C27.4747 11.8945 26.8103 13.5162 25.6249 14.72V14.69Z" />
</svg>
