<svg width="28" height="28" viewBox="0 0 28 28" xmlns="http://www.w3.org/2000/svg">
<path d="M14.1707 7.33317C12.8522 7.33317 11.5633 7.72416 10.4669 8.45671C9.37061 9.18925 8.51612 10.2304 8.01154 11.4486C7.50695 12.6668 7.37493 14.0072 7.63217 15.3004C7.8894 16.5936 8.52434 17.7815 9.45669 18.7139C10.389 19.6462 11.5769 20.2812 12.8701 20.5384C14.1633 20.7956 15.5038 20.6636 16.722 20.159C17.9401 19.6545 18.9813 18.8 19.7139 17.7036C20.4464 16.6073 20.8374 15.3184 20.8374 13.9998C20.8374 12.2317 20.135 10.536 18.8848 9.28579C17.6345 8.03555 15.9388 7.33317 14.1707 7.33317ZM14.1707 17.9998C13.3796 17.9998 12.6063 17.7652 11.9485 17.3257C11.2907 16.8862 10.778 16.2615 10.4752 15.5306C10.1725 14.7997 10.0933 13.9954 10.2476 13.2195C10.4019 12.4436 10.7829 11.7308 11.3423 11.1714C11.9017 10.612 12.6145 10.231 13.3904 10.0767C14.1663 9.92235 14.9706 10.0016 15.7015 10.3043C16.4324 10.6071 17.0571 11.1198 17.4966 11.7776C17.9361 12.4354 18.1707 13.2087 18.1707 13.9998C18.1707 15.0607 17.7493 16.0781 16.9992 16.8283C16.249 17.5784 15.2316 17.9998 14.1707 17.9998ZM20.8374 5.99984C20.5737 5.99984 20.3159 6.07804 20.0966 6.22454C19.8774 6.37105 19.7065 6.57929 19.6056 6.82293C19.5046 7.06656 19.4782 7.33465 19.5297 7.59329C19.5811 7.85193 19.7081 8.08951 19.8946 8.27598C20.0811 8.46245 20.3186 8.58944 20.5773 8.64088C20.8359 8.69233 21.104 8.66593 21.3476 8.56501C21.5913 8.46409 21.7995 8.2932 21.946 8.07393C22.0925 7.85467 22.1707 7.59688 22.1707 7.33317C22.1707 6.97955 22.0303 6.64041 21.7802 6.39036C21.5302 6.14031 21.191 5.99984 20.8374 5.99984ZM27.4241 8.9865C27.402 7.84707 27.1855 6.71977 26.7841 5.65317C26.4118 4.68259 25.8395 3.80116 25.1045 3.0661C24.3694 2.33104 23.488 1.75879 22.5174 1.3865C21.4508 0.985036 20.3235 0.768594 19.1841 0.746504C17.8907 0.666504 17.4641 0.666504 14.1707 0.666504C10.8774 0.666504 10.4507 0.666504 9.1574 0.746504C8.01797 0.768594 6.89066 0.985036 5.82407 1.3865C4.85349 1.75879 3.97206 2.33104 3.237 3.0661C2.50194 3.80116 1.92969 4.68259 1.5574 5.65317C1.15593 6.71977 0.939493 7.84707 0.917402 8.9865C0.837402 10.2932 0.837402 10.7198 0.837402 13.9998C0.837402 17.2798 0.837402 17.7065 0.917402 19.0132C0.939493 20.1526 1.15593 21.2799 1.5574 22.3465C1.92969 23.3171 2.50194 24.1985 3.237 24.9336C3.97206 25.6686 4.85349 26.2409 5.82407 26.6132C6.89066 27.0146 8.01797 27.2311 9.1574 27.2532C10.4907 27.2532 10.8774 27.3332 14.1707 27.3332C17.4641 27.3332 17.8907 27.3332 19.1841 27.2532C20.3235 27.2311 21.4508 27.0146 22.5174 26.6132C23.488 26.2409 24.3694 25.6686 25.1045 24.9336C25.8395 24.1985 26.4118 23.3171 26.7841 22.3465C27.1855 21.2799 27.402 20.1526 27.4241 19.0132C27.4241 17.6798 27.5041 17.2798 27.5041 13.9998C27.5041 10.7198 27.5041 10.2932 27.4241 8.9865ZM24.7574 18.8932C24.734 19.7393 24.5765 20.5764 24.2907 21.3732C24.0545 22.003 23.681 22.5723 23.1974 23.0398C22.7326 23.5236 22.1622 23.8933 21.5307 24.1198C20.7321 24.4173 19.8894 24.5795 19.0374 24.5998C17.7841 24.5998 17.3974 24.6665 14.1574 24.6665C10.9174 24.6665 10.5441 24.6665 9.29074 24.6665C8.4401 24.6445 7.59841 24.487 6.7974 24.1998C6.16761 23.9636 5.5983 23.5901 5.13074 23.1065C4.64694 22.6417 4.27729 22.0713 4.05074 21.4398C3.75448 20.6455 3.59227 19.8074 3.57074 18.9598C3.57074 17.6265 3.57074 17.2932 3.57074 14.0665C3.57074 10.8398 3.57074 10.4532 3.57074 9.17317C3.59372 8.32145 3.75586 7.47922 4.05074 6.67984C4.28081 6.05401 4.65011 5.48866 5.13074 5.0265C5.5955 4.54271 6.16595 4.17306 6.7974 3.9465C7.59606 3.64903 8.43872 3.48681 9.29074 3.4665C10.5441 3.33317 10.9307 3.33317 14.1707 3.33317C17.4107 3.33317 17.7974 3.33317 19.0507 3.33317C19.9069 3.35494 20.7537 3.5171 21.5574 3.81317C22.1832 4.04325 22.7486 4.41255 23.2107 4.89317C23.6945 5.35794 24.0642 5.92838 24.2907 6.55984C24.6171 7.37125 24.802 8.23261 24.8374 9.1065C24.8374 10.4398 24.9041 10.7732 24.9041 13.9998C24.9041 17.2265 24.8374 17.6132 24.8374 18.8932H24.7574Z" />
</svg>
