<svg width="31" height="30" viewBox="0 0 31 30" xmlns="http://www.w3.org/2000/svg">
<path d="M29.8007 27.5088L24.3563 22.1084C26.4696 19.4734 27.493 16.1288 27.2161 12.7624C26.9392 9.39599 25.383 6.2636 22.8675 4.00933C20.352 1.75505 17.0684 0.550248 13.6919 0.642642C10.3154 0.735036 7.10254 2.11761 4.71408 4.50607C2.32562 6.89453 0.943044 10.1073 0.85065 13.4839C0.758256 16.8604 1.96306 20.144 4.21734 22.6595C6.47161 25.175 9.604 26.7312 12.9704 27.0081C16.3369 27.285 19.6814 26.2616 22.3165 24.1483L27.7168 29.5486C27.8533 29.6862 28.0156 29.7954 28.1944 29.8699C28.3732 29.9444 28.565 29.9827 28.7588 29.9827C28.9525 29.9827 29.1443 29.9444 29.3231 29.8699C29.5019 29.7954 29.6643 29.6862 29.8007 29.5486C30.0652 29.275 30.213 28.9093 30.213 28.5287C30.213 28.1482 30.0652 27.7825 29.8007 27.5088V27.5088ZM14.0838 24.1483C12.0521 24.1483 10.066 23.5458 8.37675 22.417C6.68745 21.2883 5.3708 19.684 4.59331 17.8069C3.81581 15.9299 3.61238 13.8644 4.00874 11.8718C4.40511 9.87909 5.38347 8.04871 6.82009 6.61209C8.25672 5.17546 10.0871 4.1971 12.0798 3.80074C14.0724 3.40437 16.1379 3.6078 18.0149 4.3853C19.892 5.16279 21.4963 6.47944 22.6251 8.16874C23.7538 9.85803 24.3563 11.8441 24.3563 13.8758C24.3563 16.6002 23.274 19.2131 21.3475 21.1395C19.4211 23.066 16.8082 24.1483 14.0838 24.1483V24.1483Z" />
</svg>
