<svg width="28" height="28" viewBox="0 0 28 28" xmlns="http://www.w3.org/2000/svg">
<path d="M26.5142 1.23704C26.1623 0.921218 25.7377 0.714233 25.2855 0.638112C24.8332 0.561992 24.3703 0.619584 23.9461 0.804759L1.79991 10.4519C1.3263 10.6621 0.923147 11.0228 0.643966 11.486C0.364784 11.9493 0.222775 12.4932 0.236785 13.0455C0.250796 13.5979 0.420164 14.1326 0.72241 14.5786C1.02466 15.0247 1.44549 15.3611 1.92904 15.543L6.40872 17.224L8.9056 26.1329C8.93953 26.2519 8.98877 26.3652 9.05189 26.4694C9.06146 26.4854 9.07497 26.4973 9.08515 26.5129C9.15807 26.6226 9.24619 26.7197 9.34643 26.8005C9.37494 26.824 9.40224 26.8459 9.43272 26.8668C9.55003 26.9508 9.67995 27.0122 9.81671 27.0483L9.83134 27.0496L9.83963 27.0534C9.92185 27.0715 10.0055 27.0806 10.0894 27.0808C10.0975 27.0808 10.1047 27.0766 10.1127 27.0764C10.2393 27.0741 10.3648 27.0505 10.4848 27.0067C10.5127 26.9964 10.5366 26.9793 10.5636 26.9669C10.6531 26.9269 10.7378 26.8756 10.8161 26.8142C10.8788 26.7572 10.9415 26.7002 11.0042 26.6433L14.3435 22.6654L19.324 26.8282C19.7624 27.1965 20.3021 27.3967 20.8578 27.3972C21.4401 27.3964 22.0044 27.1796 22.4561 26.7832C22.9079 26.3868 23.2196 25.835 23.339 25.2201L27.371 3.86465C27.4623 3.38401 27.4309 2.88561 27.28 2.42277C27.129 1.95993 26.8643 1.55007 26.5142 1.23704ZM10.5795 17.6485C10.4081 17.8326 10.291 18.0673 10.2428 18.323L9.86027 20.3283L8.89135 16.8709L13.9151 14.0483L10.5795 17.6485ZM20.8385 24.7201L14.9529 19.8008C14.7067 19.5955 14.3978 19.4979 14.0878 19.5273C13.7778 19.5567 13.4895 19.7111 13.2803 19.9597L12.2108 21.2333L12.5888 19.2513L21.3418 9.80732C21.5507 9.5822 21.678 9.28379 21.7006 8.96615C21.7232 8.64851 21.6396 8.33263 21.465 8.07574C21.2903 7.81885 21.0362 7.63794 20.7486 7.56577C20.461 7.4936 20.159 7.53495 19.8972 7.68232L7.33524 14.7392L2.73278 12.9219L24.9501 3.33207L20.8385 24.7201Z" />
</svg>
