<svg width="30" height="32" viewBox="0 0 30 32" xmlns="http://www.w3.org/2000/svg">
<path d="M20.565 17.065C22.0356 15.908 23.109 14.3214 23.6359 12.5259C24.1627 10.7304 24.1169 8.8154 23.5047 7.0472C22.8925 5.279 21.7444 3.74559 20.2201 2.66028C18.6958 1.57498 16.8712 0.991756 15 0.991756C13.1288 0.991756 11.3042 1.57498 9.77989 2.66028C8.25561 3.74559 7.10751 5.279 6.49531 7.0472C5.88312 8.8154 5.83726 10.7304 6.36414 12.5259C6.89101 14.3214 7.96441 15.908 9.43499 17.065C6.91511 18.0746 4.71643 19.749 3.07333 21.9099C1.43024 24.0707 0.404339 26.637 0.104995 29.335C0.0833269 29.532 0.10067 29.7313 0.156033 29.9216C0.211397 30.1119 0.303696 30.2894 0.427662 30.444C0.678023 30.7562 1.04217 30.9562 1.44 31C1.83782 31.0438 2.23673 30.9277 2.54898 30.6773C2.86123 30.427 3.06123 30.0628 3.105 29.665C3.43437 26.7328 4.83252 24.0247 7.03232 22.0582C9.23212 20.0917 12.0793 19.0045 15.03 19.0045C17.9806 19.0045 20.8279 20.0917 23.0277 22.0582C25.2275 24.0247 26.6256 26.7328 26.955 29.665C26.9958 30.0336 27.1716 30.374 27.4487 30.6205C27.7257 30.8671 28.0842 31.0022 28.455 31H28.62C29.0132 30.9548 29.3726 30.7559 29.6198 30.4469C29.8671 30.1378 29.9822 29.7435 29.94 29.35C29.6392 26.6443 28.6078 24.0715 26.9563 21.9073C25.3047 19.7431 23.0954 18.0692 20.565 17.065V17.065ZM15 16C13.8133 16 12.6533 15.6481 11.6666 14.9888C10.6799 14.3295 9.91084 13.3925 9.45672 12.2961C9.00259 11.1997 8.88377 9.99334 9.11528 8.82946C9.34679 7.66557 9.91824 6.59647 10.7574 5.75736C11.5965 4.91824 12.6656 4.3468 13.8295 4.11529C14.9933 3.88378 16.1997 4.0026 17.2961 4.45672C18.3925 4.91085 19.3295 5.67988 19.9888 6.66658C20.6481 7.65327 21 8.81331 21 10C21 11.5913 20.3679 13.1174 19.2426 14.2426C18.1174 15.3679 16.5913 16 15 16Z" />
</svg>
