<svg width="28" height="28" viewBox="0 0 28 28" fill="none" xmlns="http://www.w3.org/2000/svg">
<circle cx="14" cy="14" r="14" fill="#FF8800"/>
<path fill-rule="evenodd" clip-rule="evenodd" d="M10.8253 6.34649C11.6464 6.30869 11.9082 6.30029 13.9998 6.30029C16.0914 6.30029 16.3532 6.30939 17.1736 6.34649C17.994 6.38359 18.554 6.51449 19.044 6.70419C19.5571 6.89809 20.0226 7.20119 20.4076 7.59319C20.7996 7.97749 21.102 8.44229 21.2952 8.95609C21.4856 9.44609 21.6158 10.0061 21.6536 10.8251C21.6914 11.6476 21.6998 11.9094 21.6998 14.0003C21.6998 16.0919 21.6907 16.3537 21.6536 17.1748C21.6165 17.9938 21.4856 18.5538 21.2952 19.0438C21.102 19.5577 20.7991 20.0232 20.4076 20.4081C20.0226 20.8001 19.5571 21.1025 19.044 21.2957C18.554 21.4861 17.994 21.6163 17.175 21.6541C16.3532 21.6919 16.0914 21.7003 13.9998 21.7003C11.9082 21.7003 11.6464 21.6912 10.8253 21.6541C10.0063 21.617 9.4463 21.4861 8.9563 21.2957C8.44245 21.1025 7.97688 20.7996 7.592 20.4081C7.20027 20.0236 6.89712 19.5582 6.7037 19.0445C6.514 18.5545 6.3838 17.9945 6.346 17.1755C6.3082 16.353 6.2998 16.0912 6.2998 14.0003C6.2998 11.9087 6.3089 11.6469 6.346 10.8265C6.3831 10.0061 6.514 9.44609 6.7037 8.95609C6.89741 8.44235 7.20079 7.97701 7.5927 7.59249C7.97703 7.20084 8.44213 6.8977 8.9556 6.70419C9.4456 6.51449 10.0056 6.38429 10.8246 6.34649H10.8253ZM17.1113 7.73249C16.2993 7.69539 16.0557 7.68769 13.9998 7.68769C11.9439 7.68769 11.7003 7.69539 10.8883 7.73249C10.1372 7.76679 9.7298 7.89209 9.4582 7.99779C9.0991 8.13779 8.8422 8.30369 8.5727 8.57319C8.31724 8.82173 8.12063 9.12429 7.9973 9.45869C7.8916 9.73029 7.7663 10.1377 7.732 10.8888C7.6949 11.7008 7.6872 11.9444 7.6872 14.0003C7.6872 16.0562 7.6949 16.2998 7.732 17.1118C7.7663 17.8629 7.8916 18.2703 7.9973 18.5419C8.1205 18.8758 8.3172 19.1789 8.5727 19.4274C8.8212 19.6829 9.1243 19.8796 9.4582 20.0028C9.7298 20.1085 10.1372 20.2338 10.8883 20.2681C11.7003 20.3052 11.9432 20.3129 13.9998 20.3129C16.0564 20.3129 16.2993 20.3052 17.1113 20.2681C17.8624 20.2338 18.2698 20.1085 18.5414 20.0028C18.9005 19.8628 19.1574 19.6969 19.4269 19.4274C19.6824 19.1789 19.8791 18.8758 20.0023 18.5419C20.108 18.2703 20.2333 17.8629 20.2676 17.1118C20.3047 16.2998 20.3124 16.0562 20.3124 14.0003C20.3124 11.9444 20.3047 11.7008 20.2676 10.8888C20.2333 10.1377 20.108 9.73029 20.0023 9.45869C19.8623 9.09959 19.6964 8.84269 19.4269 8.57319C19.1784 8.31774 18.8758 8.12114 18.5414 7.99779C18.2698 7.89209 17.8624 7.76679 17.1113 7.73249V7.73249ZM13.0163 16.374C13.5656 16.6026 14.1772 16.6335 14.7467 16.4613C15.3161 16.2891 15.8082 15.9245 16.1387 15.4299C16.4693 14.9352 16.6178 14.3411 16.559 13.7491C16.5002 13.157 16.2377 12.6038 15.8163 12.1838C15.5477 11.9153 15.2229 11.7098 14.8652 11.5819C14.5076 11.454 14.1261 11.407 13.7482 11.4443C13.3702 11.4816 13.0052 11.6022 12.6795 11.7975C12.3537 11.9928 12.0753 12.2578 11.8643 12.5736C11.6533 12.8894 11.5149 13.248 11.4592 13.6237C11.4034 13.9993 11.4316 14.3827 11.5418 14.7462C11.652 15.1096 11.8413 15.4441 12.0963 15.7256C12.3513 16.0071 12.6655 16.2285 13.0163 16.374ZM11.2012 11.2017C11.5687 10.8342 12.005 10.5426 12.4852 10.3437C12.9654 10.1448 13.4801 10.0425 13.9998 10.0425C14.5196 10.0425 15.0342 10.1448 15.5144 10.3437C15.9946 10.5426 16.4309 10.8342 16.7984 11.2017C17.1659 11.5692 17.4575 12.0055 17.6564 12.4857C17.8552 12.9659 17.9576 13.4805 17.9576 14.0003C17.9576 14.52 17.8552 15.0347 17.6564 15.5149C17.4575 15.9951 17.1659 16.4314 16.7984 16.7989C16.0562 17.5411 15.0495 17.9581 13.9998 17.9581C12.9501 17.9581 11.9434 17.5411 11.2012 16.7989C10.459 16.0567 10.042 15.05 10.042 14.0003C10.042 12.9506 10.459 11.9439 11.2012 11.2017V11.2017ZM18.8354 10.6319C18.9265 10.546 18.9994 10.4427 19.0498 10.3281C19.1002 10.2135 19.1272 10.0899 19.129 9.96474C19.1308 9.83956 19.1075 9.71528 19.0604 9.59926C19.0134 9.48324 18.9435 9.37785 18.855 9.28932C18.7664 9.20079 18.6611 9.13092 18.545 9.08386C18.429 9.03679 18.3047 9.01348 18.1796 9.0153C18.0544 9.01713 17.9308 9.04405 17.8162 9.09448C17.7016 9.14491 17.5983 9.21782 17.5124 9.30889C17.3453 9.48601 17.2538 9.72128 17.2574 9.96474C17.2609 10.2082 17.3592 10.4407 17.5314 10.6129C17.7036 10.7851 17.9361 10.8834 18.1796 10.8869C18.423 10.8905 18.6583 10.799 18.8354 10.6319V10.6319Z" fill="white"/>
</svg>
